<?xml version="1.0" encoding="UTF-8"?>
<svg version="1.1" xmlns="http://www.w3.org/2000/svg" width="512" height="512">
<path d="M0 0 C1.14015564 0.37629044 2.28031128 0.75258087 3.45501709 1.14027405 C6.59204297 2.1783273 9.72515968 3.22689088 12.85689163 4.2807312 C16.17545205 5.3951824 19.49796628 6.49772353 22.82006836 7.6015625 C27.08861155 9.02093868 31.35643279 10.44240964 35.62220764 11.87008667 C45.35914644 15.12822388 55.1079313 18.34842104 64.8651886 21.54518127 C70.90182682 23.52296218 76.93546048 25.50982953 82.96830273 27.499156 C87.18813796 28.89032272 91.40911182 30.27778383 95.63296509 31.65670776 C99.63233516 32.96280504 103.62767316 34.2805767 107.62030792 35.60711479 C109.0975861 36.09570477 110.57625265 36.58011938 112.05635834 37.06007576 C114.08840469 37.71969085 116.1149641 38.39406296 118.14086914 39.07226562 C119.28036514 39.4471814 120.41986115 39.82209717 121.59388733 40.20837402 C124.69951287 41.58728781 126.42058054 42.83828903 128.51171875 45.50390625 C128.82421875 49.00390625 128.82421875 49.00390625 127.51171875 52.50390625 C118.89464905 57.10754623 109.20727677 59.71575317 99.94921875 62.75390625 C98.25572036 63.31338146 96.56235969 63.87327374 94.86914062 64.43359375 C90.75157339 65.79518209 86.63217912 67.15109971 82.51171875 68.50390625 C83.25480203 78.86520827 85.48768637 88.91318625 87.57592773 99.06884766 C88.06246713 101.44434693 88.5394931 103.82161491 89.015625 106.19921875 C89.2405941 107.27141159 89.2405941 107.27141159 89.47010803 108.36526489 C91.00543113 116.07863869 91.1849466 122.10566378 87.66796875 129.41015625 C87.23514587 130.32541077 87.23514587 130.32541077 86.7935791 131.25915527 C85.88058074 133.18130256 84.94672374 135.09238339 84.01171875 137.00390625 C83.38400085 138.31572971 82.75768527 139.62822516 82.1328125 140.94140625 C80.60856341 144.13682746 79.06545088 147.32269693 77.51171875 150.50390625 C78.68432251 151.4307019 78.68432251 151.4307019 79.88061523 152.3762207 C87.75711726 158.74568485 93.50914378 166.45394668 95.51171875 176.50390625 C96.5157945 188.50343442 94.30199422 198.17628555 86.49609375 207.5 C82.90879372 211.1226081 78.63681983 214.71483622 73.60302734 215.98583984 C70.27148221 216.88413808 68.14255481 217.57586572 66.15454102 220.50048828 C64.97097835 223.09117257 63.97175446 225.69743525 63.01171875 228.37890625 C62.25750582 230.29593874 61.4957724 232.21002943 60.7265625 234.12109375 C60.35515137 235.04889648 59.98374023 235.97669922 59.60107422 236.93261719 C54.6847528 248.5369868 45.96134356 261.05439291 36.26171875 269.19140625 C34.29408758 271.09422133 33.54846447 271.86263414 33.390625 274.6171875 C33.88580157 277.34288916 34.6634064 279.86548171 35.51171875 282.50390625 C36.03995447 284.4565363 36.54549343 286.41416964 37.0480957 288.37353516 C37.84420048 291.42389431 38.67905819 294.46335219 39.51171875 297.50390625 C40.37224854 297.51848877 41.23277832 297.53307129 42.11938477 297.5480957 C45.39077339 297.61008452 48.66144599 297.68438774 51.93237305 297.76635742 C53.33331195 297.79909337 54.73436659 297.82727449 56.13549805 297.8503418 C82.18569188 298.29028399 105.09702432 305.94157151 125.51171875 322.50390625 C126.36507813 323.19097656 127.2184375 323.87804687 128.09765625 324.5859375 C142.95192362 337.21440771 153.13630218 353.87284907 158.94921875 372.37890625 C159.18423096 373.1073877 159.41924316 373.83586914 159.66137695 374.58642578 C164.37526284 390.93045842 163.82481935 408.65546854 163.8125 425.49609375 C163.81639764 427.74382606 163.82073446 429.99155766 163.82548523 432.23928833 C163.83287982 436.90678318 163.83270179 441.57420225 163.82739258 446.24169922 C163.82154689 452.22132949 163.83868339 458.20065511 163.86173725 464.18023491 C163.87644555 468.80243742 163.87735128 473.4245655 163.87422752 478.04678726 C163.87474023 480.25320168 163.87996851 482.45962032 163.89003944 484.66601181 C163.90235644 487.73571797 163.89564519 490.80481556 163.8840332 493.87451172 C163.89167694 494.78046082 163.89932068 495.68640991 163.90719604 496.61981201 C163.90018173 497.45747101 163.89316742 498.29513 163.88594055 499.15817261 C163.88619216 500.24251744 163.88619216 500.24251744 163.88644886 501.34876823 C163.36640284 504.33964333 162.35936536 506.09283405 160.51171875 508.50390625 C157.88554096 509.13065207 157.88554096 509.13065207 154.65364075 509.13311195 C153.42336246 509.14615069 152.19308416 509.15918943 150.92552471 509.17262328 C149.55296659 509.16181199 148.18041212 509.15052867 146.80786133 509.13882446 C145.35547055 509.14458214 143.90308705 509.15252088 142.45071888 509.16246068 C138.44973788 509.18340645 134.44935027 509.17298427 130.44836664 509.15752959 C126.13744159 509.14625135 121.82662107 509.16366118 117.51571655 509.1774292 C109.06676756 509.19970402 100.61804021 509.1948416 92.1690824 509.18036599 C85.30464844 509.16909039 78.44027674 509.16753556 71.57583618 509.17298508 C70.1123544 509.17413432 70.1123544 509.17413432 68.61930734 509.17530679 C66.63750512 509.17690536 64.65570291 509.17852642 62.67390072 509.18016975 C44.07492166 509.19443968 25.47606567 509.17801503 6.87710679 509.15116791 C-9.09403473 509.12882801 -25.06499457 509.13270779 -41.03613281 509.15576172 C-59.56692785 509.18249778 -78.09761492 509.19306627 -96.62842655 509.1777004 C-98.60308391 509.17610759 -100.57774129 509.17453574 -102.55239868 509.17298508 C-104.00988825 509.17182801 -104.00988825 509.17182801 -105.49682206 509.17064757 C-112.35584833 509.16632398 -119.21480632 509.17363129 -126.07382202 509.18538284 C-134.42866309 509.19938205 -142.78326919 509.19566243 -151.13808322 509.16897912 C-155.40381862 509.155806 -159.66916175 509.15074756 -163.93489456 509.16722488 C-167.835899 509.18206587 -171.73614564 509.17403458 -175.63708079 509.14733712 C-177.05223608 509.14172706 -178.46745471 509.1446489 -179.88256967 509.15671606 C-181.79840425 509.17180659 -183.71441682 509.15341584 -185.63020325 509.13311195 C-186.69673032 509.13230019 -187.76325739 509.13148843 -188.86210346 509.13065207 C-191.48828125 508.50390625 -191.48828125 508.50390625 -193.33099049 506.09927702 C-194.47751401 503.52805316 -194.8631492 501.94279941 -194.86250305 499.15817261 C-194.86951736 498.32051361 -194.87653168 497.48285461 -194.88375854 496.61981201 C-194.87611481 495.71386292 -194.86847107 494.80791382 -194.8605957 493.87451172 C-194.86424637 492.90943695 -194.86789703 491.94436218 -194.87165833 490.95004272 C-194.87976633 487.75688086 -194.86613735 484.56422665 -194.8515625 481.37109375 C-194.85104333 479.13689169 -194.85156322 476.90268916 -194.85307312 474.66848755 C-194.85298335 469.97602549 -194.84255422 465.28373502 -194.82446289 460.59130859 C-194.80195942 454.62839351 -194.80119778 448.66573308 -194.80798054 442.7027874 C-194.81135542 438.07998466 -194.80462197 433.45723798 -194.7948513 428.83444595 C-194.7910454 426.63961202 -194.78983157 424.44477179 -194.79143715 422.24993515 C-194.79568346 387.48329066 -194.79568346 387.48329066 -189.92578125 372.37890625 C-189.67038574 371.56180176 -189.41499023 370.74469727 -189.15185547 369.90283203 C-184.93172983 357.09377188 -178.48537246 345.56050048 -169.48828125 335.50390625 C-168.77929688 334.66472656 -168.0703125 333.82554687 -167.33984375 332.9609375 C-150.60715984 313.55689528 -126.78061833 301.74380009 -101.48828125 298.50390625 C-99.00171767 298.3636608 -96.51290306 298.25980813 -94.0234375 298.1875 C-93.34526474 298.1667189 -92.66709198 298.14593781 -91.96836853 298.12452698 C-89.82926294 298.05981316 -87.69004829 298.00051535 -85.55078125 297.94140625 C-84.08918201 297.89814641 -82.62759328 297.85452991 -81.16601562 297.81054688 C-77.60688285 297.70421374 -74.04763128 297.60273295 -70.48828125 297.50390625 C-69.45150347 293.92499045 -68.43667126 290.34021228 -67.42578125 286.75390625 C-67.13123047 285.738125 -66.83667969 284.72234375 -66.53320312 283.67578125 C-66.25927734 282.69609375 -65.98535156 281.71640625 -65.703125 280.70703125 C-65.446521 279.80629883 -65.18991699 278.90556641 -64.92553711 277.97753906 C-64.46767157 275.38731367 -64.5684854 273.94663178 -65.48828125 271.50390625 C-66.99814453 269.78138525 -66.99814453 269.78138525 -68.92578125 268.12890625 C-80.17860888 257.23777665 -89.64655104 242.04725783 -94.73657227 227.24584961 C-96.62242321 221.30020585 -96.62242321 221.30020585 -100.76171875 216.92578125 C-103.28813243 215.96901303 -103.28813243 215.96901303 -105.8984375 215.296875 C-113.15617711 213.07467117 -118.43987394 207.12752831 -122.26953125 200.80859375 C-126.86209644 192.12393522 -128.02729727 183.17297565 -125.796875 173.5078125 C-122.51352832 163.60282104 -117.0750578 157.25748242 -108.48828125 151.50390625 C-110.32570585 146.50559738 -112.38441354 141.65775804 -114.7578125 136.890625 C-115.16394775 136.06731689 -115.57008301 135.24400879 -115.98852539 134.39575195 C-116.80914361 132.74313362 -117.64261189 131.09682181 -118.48999023 129.45776367 C-118.87614502 128.6763501 -119.2622998 127.89493652 -119.66015625 127.08984375 C-120.01174805 126.39938965 -120.36333984 125.70893555 -120.72558594 124.99755859 C-122.75875517 118.35005842 -121.11825556 111.55274616 -119.73828125 104.9296875 C-119.47192871 103.59939766 -119.47192871 103.59939766 -119.20019531 102.24223328 C-118.63679291 99.432106 -118.06338936 96.62415931 -117.48828125 93.81640625 C-116.91419733 90.99776015 -116.34242022 88.17871455 -115.77636719 85.35844421 C-115.42516721 83.6100631 -115.06925978 81.86261909 -114.70800781 80.11628723 C-114.5478418 79.32163559 -114.38767578 78.52698395 -114.22265625 77.70825195 C-114.08053711 77.01512405 -113.93841797 76.32199615 -113.79199219 75.60786438 C-113.36922183 73.03341615 -113.36922183 73.03341615 -113.48828125 68.50390625 C-124.37828125 64.87390625 -135.26828125 61.24390625 -146.48828125 57.50390625 C-146.48828125 91.82390625 -146.48828125 126.14390625 -146.48828125 161.50390625 C-142.85828125 161.50390625 -139.22828125 161.50390625 -135.48828125 161.50390625 C-132.12869455 165.98335519 -132.12869455 165.98335519 -132.22265625 170.0859375 C-132.22322021 171.05450684 -132.22378418 172.02307617 -132.22436523 173.02099609 C-132.22895752 174.10848145 -132.2335498 175.1959668 -132.23828125 176.31640625 C-131.99962671 194.30171196 -129.31594903 212.03543662 -126.92675781 229.83520508 C-126.68950737 231.61090126 -126.68950737 231.61090126 -126.44746399 233.42247009 C-126.14607184 235.66693741 -125.84045524 237.91084284 -125.529953 240.15406799 C-123.76190335 253.20980952 -123.76190335 253.20980952 -125.80273438 256.84570312 C-130.12366155 259.51367925 -134.4786179 259.07396714 -139.45703125 259.03515625 C-141.06572083 259.04089661 -141.06572083 259.04089661 -142.70690918 259.04675293 C-144.97307271 259.04947341 -147.23926756 259.04210278 -149.50537109 259.02539062 C-152.97564653 259.00398419 -156.44385152 259.025189 -159.9140625 259.05078125 C-162.11588999 259.048138 -164.31771619 259.04301308 -166.51953125 259.03515625 C-167.55815308 259.04325317 -168.5967749 259.0513501 -169.66687012 259.05969238 C-176.7548682 258.96734927 -176.7548682 258.96734927 -180.17773438 256.80444336 C-181.83324547 253.89835523 -181.81456617 252.48018557 -181.42578125 249.1640625 C-181.29816406 248.00793457 -181.17054688 246.85180664 -181.0390625 245.66064453 C-180.85795289 244.27473821 -180.67414196 242.88918341 -180.48828125 241.50390625 C-180.27343685 239.83317066 -180.05859315 238.16243497 -179.84375 236.49169922 C-179.34598766 232.68157686 -178.8353035 228.87338328 -178.31762695 225.06591797 C-176.02989562 208.21035958 -173.79284599 191.5523576 -173.80273438 174.51342773 C-173.78506938 170.5744483 -173.64646237 167.11435171 -172.65625 163.29296875 C-169.85153916 160.97845062 -168.43482343 161.31742665 -164.8527832 161.39208984 C-163.35072075 161.41630508 -163.35072075 161.41630508 -161.8183136 161.44100952 C-161.04940292 161.46176544 -160.28049225 161.48252136 -159.48828125 161.50390625 C-159.49196842 160.90976048 -159.49565559 160.3156147 -159.4994545 159.70346451 C-159.58778237 145.24823462 -159.65397951 130.79302881 -159.69552994 116.33758926 C-159.71615743 109.34703125 -159.74428126 102.35665335 -159.79003906 95.36621094 C-159.83415779 88.62295803 -159.8574037 81.87993111 -159.86779022 75.13652802 C-159.87519427 72.56083985 -159.88965216 69.98516219 -159.91120148 67.40955353 C-159.94014009 63.8082902 -159.9442411 60.20780577 -159.94238281 56.60644531 C-159.95676392 55.53614075 -159.97114502 54.46583618 -159.98596191 53.36309814 C-159.9464324 46.30686226 -159.9464324 46.30686226 -158.08013916 43.03599548 C-154.10588567 40.68674981 -149.94512628 39.30643519 -145.56445312 37.88793945 C-144.55545959 37.55068344 -143.54646606 37.21342743 -142.50689697 36.86595154 C-139.16064115 35.7506915 -135.8089982 34.65265123 -132.45703125 33.5546875 C-130.10810388 32.77584658 -127.75951695 31.99597824 -125.41125488 31.21513367 C-119.83778602 29.36476517 -114.26080717 27.52531122 -108.6820569 25.69093341 C-101.83233066 23.43782451 -94.98858635 21.16674668 -88.14453125 18.89648438 C-77.61786503 15.40683295 -67.08497543 11.93656763 -56.54698181 8.48127937 C-51.09240024 6.69185414 -45.64145953 4.89262149 -40.1979599 3.06975651 C-38.15902414 2.38791843 -36.1185695 1.71090429 -34.07727051 1.03617859 C-31.82190617 0.29016528 -29.56917685 -0.46390196 -27.32019043 -1.22892761 C-16.94198453 -4.62798051 -10.15845192 -3.44832499 0 0 Z " fill="#3E5268" transform="translate(271.48828125,3.49609375)"/>
<path d="M0 0 C1.14015564 0.37629044 2.28031128 0.75258087 3.45501709 1.14027405 C6.59204297 2.1783273 9.72515968 3.22689088 12.85689163 4.2807312 C16.17545205 5.3951824 19.49796628 6.49772353 22.82006836 7.6015625 C27.08861155 9.02093868 31.35643279 10.44240964 35.62220764 11.87008667 C45.35914644 15.12822388 55.1079313 18.34842104 64.8651886 21.54518127 C70.90182682 23.52296218 76.93546048 25.50982953 82.96830273 27.499156 C87.18813796 28.89032272 91.40911182 30.27778383 95.63296509 31.65670776 C99.63233516 32.96280504 103.62767316 34.2805767 107.62030792 35.60711479 C109.0975861 36.09570477 110.57625265 36.58011938 112.05635834 37.06007576 C114.08840469 37.71969085 116.1149641 38.39406296 118.14086914 39.07226562 C119.28036514 39.4471814 120.41986115 39.82209717 121.59388733 40.20837402 C124.69951287 41.58728781 126.42058054 42.83828903 128.51171875 45.50390625 C128.82421875 49.00390625 128.82421875 49.00390625 127.51171875 52.50390625 C118.89464905 57.10754623 109.20727677 59.71575317 99.94921875 62.75390625 C98.25572036 63.31338146 96.56235969 63.87327374 94.86914062 64.43359375 C90.75157339 65.79518209 86.63217912 67.15109971 82.51171875 68.50390625 C83.25480203 78.86520827 85.48768637 88.91318625 87.57592773 99.06884766 C88.06246713 101.44434693 88.5394931 103.82161491 89.015625 106.19921875 C89.2405941 107.27141159 89.2405941 107.27141159 89.47010803 108.36526489 C91.00543113 116.07863869 91.1849466 122.10566378 87.66796875 129.41015625 C87.23514587 130.32541077 87.23514587 130.32541077 86.7935791 131.25915527 C85.88058074 133.18130256 84.94672374 135.09238339 84.01171875 137.00390625 C83.38400085 138.31572971 82.75768527 139.62822516 82.1328125 140.94140625 C80.60856341 144.13682746 79.06545088 147.32269693 77.51171875 150.50390625 C78.68432251 151.4307019 78.68432251 151.4307019 79.88061523 152.3762207 C87.75711726 158.74568485 93.50914378 166.45394668 95.51171875 176.50390625 C96.5157945 188.50343442 94.30199422 198.17628555 86.49609375 207.5 C82.90879372 211.1226081 78.63681983 214.71483622 73.60302734 215.98583984 C70.27148221 216.88413808 68.14255481 217.57586572 66.15454102 220.50048828 C64.97097835 223.09117257 63.97175446 225.69743525 63.01171875 228.37890625 C62.25750582 230.29593874 61.4957724 232.21002943 60.7265625 234.12109375 C60.35515137 235.04889648 59.98374023 235.97669922 59.60107422 236.93261719 C54.6847528 248.5369868 45.96134356 261.05439291 36.26171875 269.19140625 C34.3141697 271.07938321 33.54963602 271.85319697 33.390625 274.58203125 C34.01116978 277.95868932 35.0093711 281.13409702 36.19091797 284.35595703 C37.90848086 289.09578116 39.26507275 293.44252485 39.51171875 298.50390625 C37.02080675 302.93796025 33.57814943 305.53636013 29.51171875 308.50390625 C28.22892562 309.59415538 26.95688916 310.69726973 25.69921875 311.81640625 C25.06371094 312.35910156 24.42820312 312.90179688 23.7734375 313.4609375 C20.74098833 316.20009279 17.88424374 319.0986925 15.01171875 322.00390625 C11.052302 326.0081762 7.07042207 329.85590305 2.74609375 333.46875 C0.7658958 335.27239184 -1.06659864 337.12959443 -2.91015625 339.0703125 C-3.52898682 339.71492432 -4.14781738 340.35953613 -4.78540039 341.02368164 C-6.02947173 342.32687971 -7.26090141 343.64228399 -8.47827148 344.97045898 C-9.05262939 345.56930908 -9.6269873 346.16815918 -10.21875 346.78515625 C-10.72817139 347.33236328 -11.23759277 347.87957031 -11.76245117 348.44335938 C-13.48828125 349.50390625 -13.48828125 349.50390625 -15.90625 349.43798828 C-19.12340481 348.27414237 -20.69707196 346.7357827 -23.0703125 344.27734375 C-23.92044922 343.40980469 -24.77058594 342.54226563 -25.64648438 341.6484375 C-26.96036133 340.27751953 -26.96036133 340.27751953 -28.30078125 338.87890625 C-33.60167333 333.41594364 -38.86939515 328.05064783 -44.65893555 323.10400391 C-47.58146717 320.54771507 -50.2764414 317.77987461 -52.98828125 315.00390625 C-57.14160879 310.79220827 -61.33021602 306.73226998 -65.90234375 302.96875 C-67.78727719 301.22774005 -69.1617133 299.71477196 -70.48828125 297.50390625 C-70.26220703 295.09375 -70.26220703 295.09375 -69.43359375 292.44140625 C-69.14871094 291.47976563 -68.86382812 290.518125 -68.5703125 289.52734375 C-68.25449219 288.52960938 -67.93867188 287.531875 -67.61328125 286.50390625 C-67.00297079 284.52741965 -66.40104253 282.54832012 -65.80859375 280.56640625 C-65.53289551 279.69113281 -65.25719727 278.81585938 -64.97314453 277.9140625 C-64.45415175 275.33425548 -64.56429193 273.94585418 -65.48828125 271.50390625 C-66.99814453 269.78138525 -66.99814453 269.78138525 -68.92578125 268.12890625 C-80.17860888 257.23777665 -89.64655104 242.04725783 -94.73657227 227.24584961 C-96.62242321 221.30020585 -96.62242321 221.30020585 -100.76171875 216.92578125 C-103.28813243 215.96901303 -103.28813243 215.96901303 -105.8984375 215.296875 C-113.15617711 213.07467117 -118.43987394 207.12752831 -122.26953125 200.80859375 C-126.86209644 192.12393522 -128.02729727 183.17297565 -125.796875 173.5078125 C-122.51352832 163.60282104 -117.0750578 157.25748242 -108.48828125 151.50390625 C-110.32570585 146.50559738 -112.38441354 141.65775804 -114.7578125 136.890625 C-115.16394775 136.06731689 -115.57008301 135.24400879 -115.98852539 134.39575195 C-116.80914361 132.74313362 -117.64261189 131.09682181 -118.48999023 129.45776367 C-118.87614502 128.6763501 -119.2622998 127.89493652 -119.66015625 127.08984375 C-120.01174805 126.39938965 -120.36333984 125.70893555 -120.72558594 124.99755859 C-122.75875517 118.35005842 -121.11825556 111.55274616 -119.73828125 104.9296875 C-119.47192871 103.59939766 -119.47192871 103.59939766 -119.20019531 102.24223328 C-118.63679291 99.432106 -118.06338936 96.62415931 -117.48828125 93.81640625 C-116.91419733 90.99776015 -116.34242022 88.17871455 -115.77636719 85.35844421 C-115.42516721 83.6100631 -115.06925978 81.86261909 -114.70800781 80.11628723 C-114.5478418 79.32163559 -114.38767578 78.52698395 -114.22265625 77.70825195 C-114.08053711 77.01512405 -113.93841797 76.32199615 -113.79199219 75.60786438 C-113.36922183 73.03341615 -113.36922183 73.03341615 -113.48828125 68.50390625 C-124.37828125 64.87390625 -135.26828125 61.24390625 -146.48828125 57.50390625 C-146.48828125 91.82390625 -146.48828125 126.14390625 -146.48828125 161.50390625 C-142.85828125 161.50390625 -139.22828125 161.50390625 -135.48828125 161.50390625 C-132.12869455 165.98335519 -132.12869455 165.98335519 -132.22265625 170.0859375 C-132.22322021 171.05450684 -132.22378418 172.02307617 -132.22436523 173.02099609 C-132.22895752 174.10848145 -132.2335498 175.1959668 -132.23828125 176.31640625 C-131.99962671 194.30171196 -129.31594903 212.03543662 -126.92675781 229.83520508 C-126.68950737 231.61090126 -126.68950737 231.61090126 -126.44746399 233.42247009 C-126.14607184 235.66693741 -125.84045524 237.91084284 -125.529953 240.15406799 C-123.76190335 253.20980952 -123.76190335 253.20980952 -125.80273438 256.84570312 C-130.12366155 259.51367925 -134.4786179 259.07396714 -139.45703125 259.03515625 C-141.06572083 259.04089661 -141.06572083 259.04089661 -142.70690918 259.04675293 C-144.97307271 259.04947341 -147.23926756 259.04210278 -149.50537109 259.02539062 C-152.97564653 259.00398419 -156.44385152 259.025189 -159.9140625 259.05078125 C-162.11588999 259.048138 -164.31771619 259.04301308 -166.51953125 259.03515625 C-167.55815308 259.04325317 -168.5967749 259.0513501 -169.66687012 259.05969238 C-176.7548682 258.96734927 -176.7548682 258.96734927 -180.17773438 256.80444336 C-181.83324547 253.89835523 -181.81456617 252.48018557 -181.42578125 249.1640625 C-181.29816406 248.00793457 -181.17054688 246.85180664 -181.0390625 245.66064453 C-180.85795289 244.27473821 -180.67414196 242.88918341 -180.48828125 241.50390625 C-180.27343685 239.83317066 -180.05859315 238.16243497 -179.84375 236.49169922 C-179.34598766 232.68157686 -178.8353035 228.87338328 -178.31762695 225.06591797 C-176.02989562 208.21035958 -173.79284599 191.5523576 -173.80273438 174.51342773 C-173.78506938 170.5744483 -173.64646237 167.11435171 -172.65625 163.29296875 C-169.85153916 160.97845062 -168.43482343 161.31742665 -164.8527832 161.39208984 C-163.35072075 161.41630508 -163.35072075 161.41630508 -161.8183136 161.44100952 C-161.04940292 161.46176544 -160.28049225 161.48252136 -159.48828125 161.50390625 C-159.49196842 160.90976048 -159.49565559 160.3156147 -159.4994545 159.70346451 C-159.58778237 145.24823462 -159.65397951 130.79302881 -159.69552994 116.33758926 C-159.71615743 109.34703125 -159.74428126 102.35665335 -159.79003906 95.36621094 C-159.83415779 88.62295803 -159.8574037 81.87993111 -159.86779022 75.13652802 C-159.87519427 72.56083985 -159.88965216 69.98516219 -159.91120148 67.40955353 C-159.94014009 63.8082902 -159.9442411 60.20780577 -159.94238281 56.60644531 C-159.95676392 55.53614075 -159.97114502 54.46583618 -159.98596191 53.36309814 C-159.9464324 46.30686226 -159.9464324 46.30686226 -158.08013916 43.03599548 C-154.10588567 40.68674981 -149.94512628 39.30643519 -145.56445312 37.88793945 C-144.55545959 37.55068344 -143.54646606 37.21342743 -142.50689697 36.86595154 C-139.16064115 35.7506915 -135.8089982 34.65265123 -132.45703125 33.5546875 C-130.10810388 32.77584658 -127.75951695 31.99597824 -125.41125488 31.21513367 C-119.83778602 29.36476517 -114.26080717 27.52531122 -108.6820569 25.69093341 C-101.83233066 23.43782451 -94.98858635 21.16674668 -88.14453125 18.89648438 C-77.61786503 15.40683295 -67.08497543 11.93656763 -56.54698181 8.48127937 C-51.09240024 6.69185414 -45.64145953 4.89262149 -40.1979599 3.06975651 C-38.15902414 2.38791843 -36.1185695 1.71090429 -34.07727051 1.03617859 C-31.82190617 0.29016528 -29.56917685 -0.46390196 -27.32019043 -1.22892761 C-16.94198453 -4.62798051 -10.15845192 -3.44832499 0 0 Z " fill="#617284" transform="translate(271.48828125,3.49609375)"/>
<path d="M0 0 C26.53102873 1.71063811 52.44811423 14.22880377 71.9609375 32.08203125 C75.27753256 34.52999427 76.5256298 34.59195217 80.5859375 34.01953125 C83.14377043 32.48808747 85.29544417 30.55310762 87.5234375 28.58203125 C106.39578778 12.7357163 132.337948 -1.12810464 157.5859375 0.01953125 C160.04999586 4.87695778 162.34886759 9.65444157 163.5625 14.984375 C163.71557617 15.65331787 163.86865234 16.32226074 164.02636719 17.01147461 C164.44505212 18.94612832 164.82488373 20.88906558 165.203125 22.83203125 C166.3244885 26.33482566 166.3244885 26.33482566 169.96484375 27.7734375 C171.15980469 28.18464844 172.35476563 28.59585938 173.5859375 29.01953125 C181.29759075 33.88505588 185.46790592 41.45879927 188.2265625 50.00390625 C190.05344119 60.25031282 188.47608346 69.640095 183.078125 78.4921875 C179.05705521 84.09363124 173.58894661 89.75630025 166.67724609 91.50146484 C163.34570096 92.39976308 161.21677356 93.09149072 159.22875977 96.01611328 C158.0451971 98.60679757 157.04597321 101.21306025 156.0859375 103.89453125 C155.33172457 105.81156374 154.56999115 107.72565443 153.80078125 109.63671875 C153.42937012 110.56452148 153.05795898 111.49232422 152.67529297 112.44824219 C147.75897155 124.0526118 139.03556231 136.57001791 129.3359375 144.70703125 C127.38838845 146.59500821 126.62385477 147.36882197 126.46484375 150.09765625 C127.08538853 153.47431432 128.08358985 156.64972202 129.26513672 159.87158203 C130.98269961 164.61140616 132.3392915 168.95814985 132.5859375 174.01953125 C130.0950255 178.45358525 126.65236818 181.05198513 122.5859375 184.01953125 C121.30314437 185.10978038 120.03110791 186.21289473 118.7734375 187.33203125 C118.13792969 187.87472656 117.50242187 188.41742188 116.84765625 188.9765625 C113.81520708 191.71571779 110.95846249 194.6143175 108.0859375 197.51953125 C104.12652075 201.5238012 100.14464082 205.37152805 95.8203125 208.984375 C93.84011455 210.78801684 92.00762011 212.64521943 90.1640625 214.5859375 C89.54523193 215.23054932 88.92640137 215.87516113 88.28881836 216.53930664 C87.04474702 217.84250471 85.81331734 219.15790899 84.59594727 220.48608398 C84.02158936 221.08493408 83.44723145 221.68378418 82.85546875 222.30078125 C82.34604736 222.84798828 81.83662598 223.39519531 81.31176758 223.95898438 C79.5859375 225.01953125 79.5859375 225.01953125 77.16796875 224.95361328 C73.95081394 223.78976737 72.37714679 222.2514077 70.00390625 219.79296875 C69.15376953 218.92542969 68.30363281 218.05789063 67.42773438 217.1640625 C66.11385742 215.79314453 66.11385742 215.79314453 64.7734375 214.39453125 C59.47254542 208.93156864 54.2048236 203.56627283 48.4152832 198.61962891 C45.49275158 196.06334007 42.79777735 193.29549961 40.0859375 190.51953125 C35.93260996 186.30783327 31.74400273 182.24789498 27.171875 178.484375 C25.28694156 176.74336505 23.91250545 175.23039696 22.5859375 173.01953125 C22.81201172 170.609375 22.81201172 170.609375 23.640625 167.95703125 C24.06794922 166.51457031 24.06794922 166.51457031 24.50390625 165.04296875 C24.97763672 163.54636719 24.97763672 163.54636719 25.4609375 162.01953125 C26.07124796 160.04304465 26.67317622 158.06394512 27.265625 156.08203125 C27.54132324 155.20675781 27.81702148 154.33148438 28.10107422 153.4296875 C28.620067 150.84988048 28.50992682 149.46147918 27.5859375 147.01953125 C26.07607422 145.29701025 26.07607422 145.29701025 24.1484375 143.64453125 C12.89560987 132.75340165 3.42766771 117.56288283 -1.66235352 102.76147461 C-3.54820446 96.81583085 -3.54820446 96.81583085 -7.6875 92.44140625 C-10.21391368 91.48463803 -10.21391368 91.48463803 -12.82421875 90.8125 C-20.08195836 88.59029617 -25.36565519 82.64315331 -29.1953125 76.32421875 C-33.78787769 67.63956022 -34.95307852 58.68860065 -32.72265625 49.0234375 C-29.55968927 39.48159986 -24.13312766 32.1578715 -15.4140625 27.01953125 C-12.4140625 26.14453125 -12.4140625 26.14453125 -10.4140625 26.01953125 C-10.3109375 24.88386719 -10.2078125 23.74820313 -10.1015625 22.578125 C-9.50628454 17.82323751 -8.06967804 13.56078367 -6.4140625 9.08203125 C-6.00414062 7.93250977 -6.00414062 7.93250977 -5.5859375 6.75976562 C-3.15229823 0.02550403 -3.15229823 0.02550403 0 0 Z " fill="#F8CFB8" transform="translate(178.4140625,127.98046875)"/>
<path d="M0 0 C1.00568024 -0.00430527 1.00568024 -0.00430527 2.03167725 -0.00869751 C3.45732462 -0.01073987 4.88299991 -0.00519789 6.30859375 0.00732422 C8.43558152 0.02307615 10.56057952 0.00764397 12.6875 -0.01171875 C37.96437616 -0.05150455 60.60038075 8.46948073 80.234375 24.3984375 C81.08773437 25.08550781 81.94109375 25.77257812 82.8203125 26.48046875 C97.67457987 39.10893896 107.85895843 55.76738032 113.671875 74.2734375 C114.02439331 75.36615967 114.02439331 75.36615967 114.3840332 76.48095703 C119.09791909 92.82498967 118.5474756 110.54999979 118.53515625 127.390625 C118.53905389 129.63835731 118.54339071 131.88608891 118.54814148 134.13381958 C118.55553607 138.80131443 118.55535804 143.4687335 118.55004883 148.13623047 C118.54420314 154.11586074 118.56133964 160.09518636 118.5843935 166.07476616 C118.5991018 170.69696867 118.60000753 175.31909675 118.59688377 179.94131851 C118.59739648 182.14773293 118.60262476 184.35415157 118.61269569 186.56054306 C118.62501269 189.63024922 118.61830144 192.69934681 118.60668945 195.76904297 C118.61433319 196.67499207 118.62197693 197.58094116 118.62985229 198.51434326 C118.62283798 199.35200226 118.61582367 200.18966125 118.6085968 201.05270386 C118.60876454 201.77560041 118.60893229 202.49849697 118.60910511 203.24329948 C118.08918182 206.23346875 117.13082681 208.03042857 115.234375 210.3984375 C112.78812122 211.01367664 112.78812122 211.01367664 109.82441711 210.99971008 C108.70121063 211.0065834 107.57800415 211.01345673 106.42076111 211.02053833 C105.18789871 211.00256195 103.95503632 210.98458557 102.68481445 210.96606445 C101.38715149 210.96679459 100.08948853 210.96752472 98.75250244 210.96827698 C95.1925311 210.96971332 91.63339976 210.94028988 88.0736239 210.90540719 C84.35407266 210.87417915 80.63450279 210.87121579 76.9148407 210.86528015 C69.8705187 210.84973113 62.82658406 210.80868877 55.78243273 210.7585327 C47.76322347 210.70267182 39.74399584 210.67516101 31.72464049 210.65005553 C15.22765845 210.59777348 -1.26893386 210.50981114 -17.765625 210.3984375 C-19.93236593 199.92722661 -19.93236593 199.92722661 -20.46411133 194.94091797 C-20.56812256 193.98823532 -20.67213379 193.03555267 -20.77929688 192.05400085 C-20.88435547 191.05133682 -20.98941406 190.04867279 -21.09765625 189.015625 C-21.21455811 187.93888016 -21.33145996 186.86213531 -21.4519043 185.75276184 C-21.70164319 183.45128553 -21.94953099 181.14960771 -22.19570923 178.8477478 C-22.84445671 172.78412553 -23.50662969 166.72198838 -24.171875 160.66015625 C-24.3049556 159.44727432 -24.43803619 158.2343924 -24.57514954 156.98475647 C-25.96441234 144.42910974 -27.53785521 131.89814498 -29.2043457 119.37646484 C-30.17814424 111.97179969 -31.0261316 104.5600131 -31.60546875 97.11328125 C-31.67208206 96.4133757 -31.73869537 95.71347015 -31.80732727 94.99235535 C-32.11659846 90.37874577 -31.39602309 87.87824709 -28.515625 84.2734375 C-27.89171875 83.67273438 -27.2678125 83.07203125 -26.625 82.453125 C-24.11085997 79.67489463 -23.11973101 76.88400669 -21.765625 73.3984375 C-22.38381104 73.07681641 -23.00199707 72.75519531 -23.63891602 72.42382812 C-35.71246928 66.13997785 -47.77481407 59.83899945 -59.765625 53.3984375 C-58.28436143 49.95913167 -56.34135054 47.72889412 -53.6953125 45.09765625 C-52.880625 44.28490234 -52.0659375 43.47214844 -51.2265625 42.63476562 C-50.37320312 41.79365234 -49.51984375 40.95253906 -48.640625 40.0859375 C-47.39539063 38.84166992 -47.39539063 38.84166992 -46.125 37.57226562 C-41.74576604 33.22391968 -37.28353719 29.04687734 -32.60595703 25.02270508 C-29.68917137 22.44836506 -26.98314937 19.67980479 -24.265625 16.8984375 C-20.09829253 12.67797184 -15.89076826 8.59124383 -11.3515625 4.765625 C-9.72899461 3.46445758 -9.72899461 3.46445758 -8.58935547 1.83789062 C-5.8221095 -0.34627032 -3.48229469 0.0095843 0 0 Z " fill="#3E5268" transform="translate(316.765625,301.6015625)"/>
<path d="M0 0 C5.06740274 0.58944593 9.68769294 1.71090719 14.52075195 3.36083984 C15.59546753 3.71958946 15.59546753 3.71958946 16.69189453 4.08558655 C19.04260974 4.87177024 21.39039464 5.66635061 23.73828125 6.4609375 C25.38564744 7.01339857 27.03320842 7.5652791 28.68095398 8.11660767 C33.01070297 9.56681801 37.33808871 11.02395111 41.66491699 12.48284912 C48.57762114 14.81220955 55.49406861 17.13043797 62.41014671 19.44975662 C64.81129 20.25598057 67.21154853 21.06479135 69.61164856 21.87411499 C80.73796143 25.65513496 80.73796143 25.65513496 92 29 C93.01537842 29.27787354 94.03075684 29.55574707 95.0769043 29.84204102 C99.31446357 30.07103131 102.77635917 28.85759823 106.76953125 27.52734375 C107.62728653 27.25291946 108.48504181 26.97849518 109.36878967 26.695755 C112.18783109 25.78956412 115.00007366 24.86399798 117.8125 23.9375 C119.77008969 23.30292263 121.72793835 22.66914365 123.68603516 22.03613281 C141.58810652 16.22498636 159.40786759 10.1626784 177.19288635 4.00349426 C179.12784924 3.333517 181.06388833 2.66665021 183 2 C184.5780542 1.41943848 184.5780542 1.41943848 186.18798828 0.82714844 C188.95586247 0.01298298 191.13495371 -0.16853213 194 0 C195.29250519 6.40249536 196.57294503 12.80732032 197.84521484 19.21386719 C198.27899367 21.39084816 198.71548286 23.56729097 199.15478516 25.74316406 C199.78749745 28.87946583 200.41028277 32.01760439 201.03125 35.15625 C201.32654602 36.60360535 201.32654602 36.60360535 201.62780762 38.0802002 C203.26616428 46.448529 203.98944131 52.87110644 200.296875 60.87109375 C200.01781311 61.47889175 199.73875122 62.08668976 199.45123291 62.71290588 C198.86347126 63.98258191 198.2681374 65.24877825 197.66552734 66.51147461 C196.74511947 68.44776734 195.85782728 70.39699743 194.97265625 72.34960938 C194.39513892 73.58683074 193.81577661 74.82319295 193.234375 76.05859375 C192.71069336 77.17548584 192.18701172 78.29237793 191.64746094 79.44311523 C190 82 190 82 187.79785156 82.87133789 C187.20456055 82.91379639 186.61126953 82.95625488 186 83 C183.85506382 79.78259573 183.3800823 77.63264486 182.625 73.875 C181.51928278 68.80004146 180.07183956 64.35476225 177.76953125 59.70703125 C177 58 177 58 177 56 C150.88375138 59.30072322 127.60270694 68.02225813 107.328125 85.2734375 C106.45671875 86.00820312 105.5853125 86.74296875 104.6875 87.5 C103.54861328 88.50546875 103.54861328 88.50546875 102.38671875 89.53125 C99.27451635 91.44645148 97.59914873 91.57901363 94 91 C91.421875 89.19921875 91.421875 89.19921875 88.75 86.6875 C70.43189395 70.39003282 42.02161485 55.88792823 17 57 C13.40900077 65.11795039 11.15111863 73.41840971 9 82 C7.02 82.495 7.02 82.495 5 83 C2.67001348 78.39325001 0.35910918 73.7777514 -1.93066406 69.15087891 C-2.60415066 67.7962175 -3.28251111 66.44395769 -3.96777344 65.09521484 C-4.82656636 63.40420403 -5.66384391 61.70231779 -6.5 60 C-6.9846875 59.030625 -7.469375 58.06125 -7.96875 57.0625 C-10.40833628 49.81766802 -8.51612319 42.43416437 -7.03125 35.15625 C-6.8314856 34.14655151 -6.63172119 33.13685303 -6.42590332 32.09655762 C-5.79104666 28.89624038 -5.14569613 25.69814596 -4.5 22.5 C-4.06570952 20.32045121 -3.63210852 18.14076492 -3.19921875 15.9609375 C-2.14078537 10.63900795 -1.07374606 5.31886001 0 0 Z " fill="#3E5268" transform="translate(159,72)"/>
<path d="M0 0 C0.66 0 1.32 0 2 0 C2 0.66 2 1.32 2 2 C2.75796875 2.21140625 3.5159375 2.4228125 4.296875 2.640625 C9.52396735 4.55943105 14.3309358 7.1543548 19.25 9.75 C20.23613281 10.26304687 21.22226562 10.77609375 22.23828125 11.3046875 C28.62967163 14.65616757 34.85522662 18.21573945 41 22 C36.52802485 31.45503318 36.52802485 31.45503318 33.39770508 34.68579102 C30.93681453 37.61261899 30.51166553 39.80713949 30.80764771 43.6960907 C30.9299324 44.73791252 30.9299324 44.73791252 31.0546875 45.80078125 C31.12082245 46.54443436 31.1869574 47.28808746 31.25509644 48.05427551 C31.47173029 50.37407708 31.72994383 52.68585965 32 55 C32.07641724 55.69236755 32.15283447 56.38473511 32.23156738 57.0980835 C32.70565721 61.35300779 33.2475402 65.59712615 33.81314087 69.84075928 C36.30802597 88.6147758 38.45595263 107.42864079 40.57308197 126.24811172 C40.81265202 128.37635048 41.05287972 130.5045141 41.29327393 132.63265991 C41.74550917 136.63771651 42.19535172 140.64303699 42.64453125 144.6484375 C42.78179123 145.86742233 42.91905121 147.08640717 43.06047058 148.34233093 C43.24673759 150.01244987 43.24673759 150.01244987 43.43676758 151.71630859 C43.5460408 152.69264252 43.65531403 153.66897644 43.76789856 154.67489624 C44 157 44 157 44 159 C15.62 159 -12.76 159 -42 159 C-38.59005638 124.90056381 -38.59005638 124.90056381 -36.92172241 112.09472656 C-36.38368622 107.95644631 -35.86257395 103.81601802 -35.33984375 99.67578125 C-35.23136612 98.81812164 -35.12288849 97.96046204 -35.01112366 97.07681274 C-33.80503614 87.50961623 -32.65185668 77.93628018 -31.52484131 68.35946655 C-31.30200623 66.4706097 -31.07746969 64.5819527 -30.85113525 62.69351196 C-30.53546681 60.05661176 -30.22590699 57.41906269 -29.91796875 54.78125 C-29.82447647 54.00899582 -29.73098419 53.23674164 -29.63465881 52.44108582 C-28.31740709 43.68678974 -28.31740709 43.68678974 -30.42578125 35.49609375 C-31.35970703 34.47708984 -31.35970703 34.47708984 -32.3125 33.4375 C-35.58355645 29.8098504 -37.22516399 26.50535294 -39 22 C-30.3780386 16.91946815 -21.61188525 12.14854125 -12.75 7.5 C-11.72575928 6.95956055 -10.70151855 6.41912109 -9.64624023 5.86230469 C-8.68532471 5.36118164 -7.72440918 4.86005859 -6.734375 4.34375 C-5.87038086 3.89193359 -5.00638672 3.44011719 -4.11621094 2.97460938 C-2 2 -2 2 0 2 C0 1.34 0 0.68 0 0 Z " fill="#FE5859" transform="translate(255,353)"/>
<path d="M0 0 C1.44572582 -0.02622902 2.89215849 -0.02368116 4.33789062 0.00219727 C5.10339233 -0.00021469 5.86889404 -0.00262665 6.65759277 -0.00511169 C8.2748737 -0.00413289 9.89218798 0.00926925 11.50927734 0.03417969 C13.98585729 0.06848876 16.45886946 0.05484558 18.93554688 0.03540039 C20.50717666 0.04229895 22.07879722 0.05197144 23.65039062 0.06469727 C24.39107788 0.0597374 25.13176514 0.05477753 25.89489746 0.04966736 C29.11373097 0.12345615 31.01088571 0.20284545 33.46777344 2.38012695 C34.61612076 4.89862418 34.82294681 6.45450032 34.75976562 9.21313477 C34.75920166 10.1817041 34.7586377 11.15027344 34.75805664 12.14819336 C34.75346436 13.23567871 34.74887207 14.32316406 34.74414062 15.44360352 C34.98279516 33.42890923 37.66647284 51.16263389 40.05566406 68.96240234 C40.29291451 70.73809853 40.29291451 70.73809853 40.53495789 72.54966736 C40.83635004 74.79413467 41.14196663 77.0380401 41.45246887 79.28126526 C43.22051852 92.33700678 43.22051852 92.33700678 41.1796875 95.97290039 C36.85876033 98.64087652 32.50380398 98.2011644 27.52539062 98.16235352 C25.91670105 98.16809387 25.91670105 98.16809387 24.2755127 98.1739502 C22.00934917 98.17667068 19.74315432 98.16930004 17.47705078 98.15258789 C14.00677535 98.13118145 10.53857036 98.15238626 7.06835938 98.17797852 C4.86653188 98.17533527 2.66470568 98.17021035 0.46289062 98.16235352 C-1.09504211 98.1744989 -1.09504211 98.1744989 -2.68444824 98.18688965 C-9.77244632 98.09454653 -9.77244632 98.09454653 -13.1953125 95.93164062 C-14.8508236 93.02555249 -14.83214429 91.60738284 -14.44335938 88.29125977 C-14.31574219 87.13513184 -14.188125 85.97900391 -14.05664062 84.7878418 C-13.87553102 83.40193548 -13.69172009 82.01638068 -13.50585938 80.63110352 C-13.29101498 78.96036792 -13.07617127 77.28963224 -12.86132812 75.61889648 C-12.36356578 71.80877413 -11.85288162 68.00058055 -11.33520508 64.19311523 C-9.04747375 47.33755685 -6.81042411 30.67955486 -6.8203125 13.640625 C-6.81580078 12.63459229 -6.81128906 11.62855957 -6.80664062 10.59204102 C-6.81864502 9.74432129 -6.83064941 8.89660156 -6.84301758 8.02319336 C-6.15039482 3.10913272 -5.03622748 0.90659109 0 0 Z " fill="#FECE00" transform="translate(104.505859375,164.368896484375)"/>
<path d="M0 0 C0.33 0 0.66 0 1 0 C1.96176612 6.00969284 2.92198514 12.01963023 3.88085938 18.02978516 C4.20629536 20.06826217 4.53213154 22.10667534 4.85839844 24.14501953 C6.49719261 34.38496963 8.10995267 44.62228687 9.54394531 54.89306641 C10.47246188 61.21870976 11.62243976 67.51046455 12.76367188 73.80078125 C12.93833984 74.80753906 13.11300781 75.81429687 13.29296875 76.8515625 C13.4530542 77.74697754 13.61313965 78.64239258 13.77807617 79.56494141 C14.00075615 82.00829681 13.75149446 83.68247066 13 86 C-22.50361904 67.87590189 -22.50361904 67.87590189 -39.63671875 58.3828125 C-43.70293449 56.13671238 -47.8310708 54.04873092 -52 52 C-50.51873643 48.56069417 -48.57572554 46.33045662 -45.9296875 43.69921875 C-45.115 42.88646484 -44.3003125 42.07371094 -43.4609375 41.23632812 C-42.60757812 40.39521484 -41.75421875 39.55410156 -40.875 38.6875 C-39.62976563 37.44323242 -39.62976563 37.44323242 -38.359375 36.17382812 C-33.98014104 31.82548218 -29.51791219 27.64843984 -24.84033203 23.62426758 C-21.92354688 21.04992802 -19.21751922 18.28137189 -16.5 15.5 C-12.30059028 11.2469782 -8.05546254 7.13256468 -3.48828125 3.26953125 C-1.87189265 1.92460715 -1.87189265 1.92460715 0 0 Z " fill="#627284" transform="translate(309,303)"/>
<path d="M0 0 C1.11574561 0.95544458 2.23136183 1.91104026 3.34692383 2.86669922 C3.96819656 3.39883026 4.5894693 3.9309613 5.22956848 4.47921753 C11.94118667 10.24442854 18.36416687 16.23994261 24.5378418 22.57470703 C27.20726514 25.29274953 29.95118232 27.85804874 32.8359375 30.34765625 C37.23872623 34.15915056 41.38150964 38.19782305 45.5 42.3125 C46.22703125 43.02728516 46.9540625 43.74207031 47.703125 44.47851562 C48.38890625 45.16236328 49.0746875 45.84621094 49.78125 46.55078125 C50.40064453 47.16606689 51.02003906 47.78135254 51.65820312 48.4152832 C53 50 53 50 53 52 C51.8550708 52.5873291 51.8550708 52.5873291 50.68701172 53.18652344 C47.08153778 55.03817292 43.47769752 56.89295539 39.875 58.75 C39.21884705 59.08813721 38.56269409 59.42627441 37.88665771 59.7746582 C29.23536237 64.23769716 20.64489402 68.78946699 12.125 73.5 C3.90209369 78.04320839 -4.40731251 82.19887345 -13 86 C-12.42113664 78.26665844 -11.11550517 70.72877191 -9.70220947 63.10931396 C-5.83283356 42.1662032 -2.89827297 21.09557529 0 0 Z " fill="#627384" transform="translate(202,303)"/>
<path d="M0 0 C0.66 0 1.32 0 2 0 C2 0.66 2 1.32 2 2 C2.75796875 2.21140625 3.5159375 2.4228125 4.296875 2.640625 C9.52396735 4.55943105 14.3309358 7.1543548 19.25 9.75 C20.23613281 10.26304687 21.22226562 10.77609375 22.23828125 11.3046875 C28.62967163 14.65616757 34.85522662 18.21573945 41 22 C35.21588509 34.30265373 28.68905175 41.70442376 15.75 46.875 C12.0796722 47.97609834 8.81590995 48.67104225 5 49 C4.27296875 49.06445312 3.5459375 49.12890625 2.796875 49.1953125 C-8.89479289 49.76103837 -19.99562412 45.3214494 -29 38 C-33.69591875 33.14067016 -36.47358227 28.19573871 -39 22 C-30.3780386 16.91946815 -21.61188525 12.14854125 -12.75 7.5 C-11.72575928 6.95956055 -10.70151855 6.41912109 -9.64624023 5.86230469 C-8.68532471 5.36118164 -7.72440918 4.86005859 -6.734375 4.34375 C-5.87038086 3.89193359 -5.00638672 3.44011719 -4.11621094 2.97460938 C-2 2 -2 2 0 2 C0 1.34 0 0.68 0 0 Z " fill="#FD696A" transform="translate(255,353)"/>
<path d="M0 0 C17.49 0 34.98 0 53 0 C53.061875 5.176875 53.12375 10.35375 53.1875 15.6875 C53.22846802 18.12515747 53.22846802 18.12515747 53.27026367 20.61206055 C53.27775635 21.89894775 53.28524902 23.18583496 53.29296875 24.51171875 C53.3086792 25.82615967 53.32438965 27.14060059 53.34057617 28.49487305 C52.76823374 34.38528191 52.76823374 34.38528191 50 37 C46.25680857 37.70810703 42.56644428 37.57915891 38.76953125 37.48828125 C37.66397385 37.48120651 36.55841644 37.47413177 35.4193573 37.46684265 C31.88305419 37.43882049 28.34832574 37.37606379 24.8125 37.3125 C22.41734055 37.28742742 20.02215632 37.26461245 17.62695312 37.24414062 C11.75020525 37.1932156 5.87686797 37.0953693 0 37 C0 24.79 0 12.58 0 0 Z " fill="#F7CEB8" transform="translate(382,475)"/>
<path d="M0 0 C17.49 0 34.98 0 53 0 C53 12.21 53 24.42 53 37 C45.93315431 37.11468015 38.86952455 37.2142562 31.80249023 37.2746582 C29.39775668 37.29983101 26.99309985 37.33397182 24.58862305 37.37719727 C21.13571267 37.43772467 17.68381205 37.46618244 14.23046875 37.48828125 C12.61316109 37.52699089 12.61316109 37.52699089 10.96318054 37.56648254 C3.60268248 37.56926002 3.60268248 37.56926002 0.81640625 34.9375 C-0.18396451 31.33807986 -0.33767305 28.25197846 -0.29296875 24.51171875 C-0.28547607 23.22483154 -0.2779834 21.93794434 -0.27026367 20.61206055 C-0.24295166 18.98695557 -0.21563965 17.36185059 -0.1875 15.6875 C-0.125625 10.510625 -0.06375 5.33375 0 0 Z " fill="#F7CEB8" transform="translate(77,475)"/>
<path d="M0 0 C1.63496399 1.09663391 1.63496399 1.09663391 3 3 C3.36076355 6.01823425 3.36076355 6.01823425 3.34057617 9.76635742 C3.34123329 10.79113945 3.34123329 10.79113945 3.34190369 11.83662415 C3.33981482 14.09319712 3.31648037 16.34902569 3.29296875 18.60546875 C3.28737311 20.17059422 3.28310286 21.73572494 3.28010559 23.30085754 C3.26865419 27.41916424 3.2391847 31.53715325 3.20599365 35.65533447 C3.17529901 39.85806989 3.16160156 44.06085666 3.14648438 48.26367188 C3.11431507 56.50926033 3.0631154 64.75459064 3 73 C-0.96 73 -4.92 73 -9 73 C-9 60.79 -9 48.58 -9 36 C-26.16 36 -43.32 36 -61 36 C-61 32.37 -61 28.74 -61 25 C-43.51 25 -26.02 25 -8 25 C-8 17.41 -8 9.82 -8 2 C-4.76746204 -0.15502531 -3.74849077 -0.46856135 0 0 Z " fill="#637485" transform="translate(139,439)"/>
<path d="M0 0 C1.670625 0.4021875 1.670625 0.4021875 3.375 0.8125 C6.95581307 7.97412613 4.375 16.80555857 4.375 24.8125 C21.865 24.8125 39.355 24.8125 57.375 24.8125 C57.375 28.4425 57.375 32.0725 57.375 35.8125 C40.215 35.8125 23.055 35.8125 5.375 35.8125 C5.375 48.0225 5.375 60.2325 5.375 72.8125 C1.415 72.8125 -2.545 72.8125 -6.625 72.8125 C-6.69446571 63.73748432 -6.74779367 54.66255995 -6.78043652 45.58733654 C-6.79610231 41.37347724 -6.81735703 37.15979964 -6.85131836 32.94604492 C-6.88387957 28.88063581 -6.90184613 24.81540164 -6.90963173 20.74987221 C-6.9151811 19.19768837 -6.92601755 17.64551427 -6.94219017 16.09340477 C-6.96392207 13.92167741 -6.9669688 11.75067576 -6.96557617 9.57885742 C-6.97223801 8.34197678 -6.97889984 7.10509613 -6.98576355 5.83073425 C-6.625 2.8125 -6.625 2.8125 -5.33027649 0.87788391 C-3.625 -0.1875 -3.625 -0.1875 0 0 Z " fill="#637485" transform="translate(376.625,439.1875)"/>
<path d="M0 0 C1.65 1.32 3.3 2.64 5 4 C7.31347872 4.73260159 9.645752 5.411438 12 6 C13 7 13 7 13.12304783 8.76287174 C13.12166514 9.92294821 13.12166514 9.92294821 13.12025452 11.10646057 C13.12162918 11.99132141 13.12300385 12.87618225 13.12442017 13.78785706 C13.12082489 14.76608932 13.11722961 15.74432159 13.11352539 16.75219727 C13.11367142 17.7764682 13.11381744 18.80073914 13.1139679 19.85604858 C13.11326828 23.25952229 13.10547363 26.66294204 13.09765625 30.06640625 C13.09579224 32.41910268 13.09436826 34.7717995 13.09336853 37.12449646 C13.08954199 43.33056705 13.07971055 49.5366144 13.06866455 55.74267578 C13.05845334 62.06998378 13.05387154 68.39729552 13.04882812 74.72460938 C13.0380884 87.14974982 13.02101036 99.57487298 13 112 C8.71 112 4.42 112 0 112 C0 75.04 0 38.08 0 0 Z " fill="#3E5267" transform="translate(112,53)"/>
<path d="M0 0 C6.95940322 1.18457927 11.41945744 4.69621388 16 10 C22.26902032 20.23460103 24.95618845 30.00860368 22.3515625 41.98046875 C19.22352519 51.45815446 13.77696617 58.58282253 5.2890625 63.84765625 C1.90821618 65.54961813 -1.28251315 66.3240933 -5 67 C-4.24860162 59.73648229 -4.24860162 59.73648229 -3.0625 56.22265625 C2.78138146 38.49764814 2.20782932 18.3328685 0 0 Z " fill="#FABBA7" transform="translate(344,154)"/>
<path d="M0 0 C-0.10284302 0.98335327 -0.10284302 0.98335327 -0.20776367 1.98657227 C-2.15764451 21.77341137 -1.56038129 40.68340904 4.1328125 59.8046875 C5 63 5 63 5 67 C-4.63577407 64.88777395 -11.6116321 60.74481881 -17.375 52.625 C-23.00947163 43.32812181 -24.78785638 33.74737766 -22.30859375 23.00390625 C-19.10639253 13.34370926 -13.6764745 6.34648429 -5 1 C-2 0 -2 0 0 0 Z " fill="#F9BBA7" transform="translate(168,154)"/>
<path d="M0 0 C1.3125 0.875 2.625 1.75 3.9375 2.625 C4.76507813 3.17285156 5.59265625 3.72070312 6.4453125 4.28515625 C8.03831478 5.35446512 9.61901462 6.44262874 11.1796875 7.55859375 C26.4505125 18.32648317 43.01848955 20.81648566 61.25390625 18.60546875 C73.64713126 15.67272085 85.6544901 8.44690318 95 0 C97.12508244 3.18762365 97.5020163 5.26512223 98 9 C91.97584896 13.79889998 85.85734718 17.834611 79 21.3125 C78.37287109 21.63734375 77.74574219 21.9621875 77.09960938 22.296875 C67.82596005 26.86265536 58.60047043 28.56615789 48.3125 28.5 C46.74375122 28.49141968 46.74375122 28.49141968 45.14331055 28.48266602 C27.18821344 28.07255575 11.62610739 20.58395176 -2 9 C-1.34 6.03 -0.68 3.06 0 0 Z " fill="#F9BBA7" transform="translate(208,276)"/>
<path d="M0 0 C0.33 0.66 0.66 1.32 1 2 C-0.36633827 5.83924095 -2.12073886 9.50732079 -3.83178711 13.2043457 C-4.68252248 15.05169146 -5.50868924 16.90875424 -6.33398438 18.76757812 C-6.86701172 19.92837891 -7.40003906 21.08917969 -7.94921875 22.28515625 C-8.43737061 23.35644775 -8.92552246 24.42773926 -9.4284668 25.53149414 C-11 28 -11 28 -13.19067383 28.85717773 C-13.78775146 28.90430908 -14.3848291 28.95144043 -15 29 C-17.15655251 25.76517124 -17.65978855 23.52871099 -18.4375 19.75 C-19.26054108 15.97492893 -20.06539871 12.44950232 -21.6875 8.9375 C-23 6 -23 6 -23 2 C-22.00818726 1.96241577 -22.00818726 1.96241577 -20.99633789 1.92407227 C-18.01817695 1.80846898 -15.0403608 1.68558246 -12.0625 1.5625 C-10.50112305 1.50352539 -10.50112305 1.50352539 -8.90820312 1.44335938 C-7.42416992 1.38051758 -7.42416992 1.38051758 -5.91015625 1.31640625 C-4.53549194 1.26141968 -4.53549194 1.26141968 -3.13305664 1.20532227 C-1.0179272 1.22996136 -1.0179272 1.22996136 0 0 Z " fill="#334455" transform="translate(360,126)"/>
<path d="M0 0 C0.99 0.495 0.99 0.495 2 1 C3.66565749 1.15222973 5.33656496 1.24917215 7.0078125 1.31640625 C7.99394531 1.35830078 8.98007813 1.40019531 9.99609375 1.44335938 C11.54490234 1.50233398 11.54490234 1.50233398 13.125 1.5625 C14.68541016 1.62727539 14.68541016 1.62727539 16.27734375 1.69335938 C18.85142528 1.7996288 21.42560508 1.90166583 24 2 C23.32235339 6.91293791 22.02508691 11.42773231 20.5 16.125 C18.6037931 22.0203074 18.6037931 22.0203074 17 28 C15.68 28.33 14.36 28.66 13 29 C0 3.29032258 0 3.29032258 0 0 Z " fill="#334355" transform="translate(151,126)"/>
</svg>
